<mxfile host="app.diagrams.net" modified="2023-12-11T11:52:31.443Z" agent="Mozilla/5.0 (Windows NT 10.0; Win64; x64) AppleWebKit/537.36 (KHTML, like Gecko) Chrome/120.0.0.0 Safari/537.36 Edg/120.0.0.0" etag="c08oGvU-tkGHaeVm-VeK" version="22.1.7" type="google">
  <diagram name="Страница — 1" id="rzkVChJ4Ft4g1tKN7KYf">
    <mxGraphModel grid="1" page="1" gridSize="10" guides="1" tooltips="1" connect="1" arrows="1" fold="1" pageScale="1" pageWidth="1654" pageHeight="1169" math="0" shadow="0">
      <root>
        <mxCell id="0" />
        <mxCell id="1" parent="0" />
        <mxCell id="b8W9uFtrO54gC6MfcHu9-2" value="1" style="whiteSpace=wrap;html=1;aspect=fixed;" vertex="1" parent="1">
          <mxGeometry x="500" y="590" width="30" height="30" as="geometry" />
        </mxCell>
        <mxCell id="b8W9uFtrO54gC6MfcHu9-3" value="2" style="whiteSpace=wrap;html=1;aspect=fixed;" vertex="1" parent="1">
          <mxGeometry x="530" y="590" width="30" height="30" as="geometry" />
        </mxCell>
        <mxCell id="b8W9uFtrO54gC6MfcHu9-4" value="3" style="whiteSpace=wrap;html=1;aspect=fixed;" vertex="1" parent="1">
          <mxGeometry x="560" y="590" width="30" height="30" as="geometry" />
        </mxCell>
        <mxCell id="b8W9uFtrO54gC6MfcHu9-5" value="4" style="whiteSpace=wrap;html=1;aspect=fixed;" vertex="1" parent="1">
          <mxGeometry x="590" y="590" width="30" height="30" as="geometry" />
        </mxCell>
        <mxCell id="b8W9uFtrO54gC6MfcHu9-6" value="Pieces: 4" style="ellipse;whiteSpace=wrap;html=1;aspect=fixed;" vertex="1" parent="1">
          <mxGeometry x="400" y="575" width="65" height="65" as="geometry" />
        </mxCell>
        <mxCell id="b8W9uFtrO54gC6MfcHu9-7" value="" style="endArrow=none;html=1;rounded=0;" edge="1" parent="1">
          <mxGeometry width="50" height="50" relative="1" as="geometry">
            <mxPoint x="560" y="670" as="sourcePoint" />
            <mxPoint x="560" y="530" as="targetPoint" />
          </mxGeometry>
        </mxCell>
        <mxCell id="b8W9uFtrO54gC6MfcHu9-8" value="1" style="whiteSpace=wrap;html=1;aspect=fixed;" vertex="1" parent="1">
          <mxGeometry x="650" y="590" width="30" height="30" as="geometry" />
        </mxCell>
        <mxCell id="b8W9uFtrO54gC6MfcHu9-9" value="2" style="whiteSpace=wrap;html=1;aspect=fixed;" vertex="1" parent="1">
          <mxGeometry x="680" y="590" width="30" height="30" as="geometry" />
        </mxCell>
        <mxCell id="b8W9uFtrO54gC6MfcHu9-10" value="3" style="whiteSpace=wrap;html=1;aspect=fixed;" vertex="1" parent="1">
          <mxGeometry x="650" y="620" width="30" height="30" as="geometry" />
        </mxCell>
        <mxCell id="b8W9uFtrO54gC6MfcHu9-11" value="4" style="whiteSpace=wrap;html=1;aspect=fixed;" vertex="1" parent="1">
          <mxGeometry x="680" y="620" width="30" height="30" as="geometry" />
        </mxCell>
        <mxCell id="b8W9uFtrO54gC6MfcHu9-12" value="" style="endArrow=none;html=1;rounded=0;" edge="1" parent="1">
          <mxGeometry width="50" height="50" relative="1" as="geometry">
            <mxPoint x="680" y="680" as="sourcePoint" />
            <mxPoint x="680" y="520" as="targetPoint" />
          </mxGeometry>
        </mxCell>
        <mxCell id="b8W9uFtrO54gC6MfcHu9-13" value="Cuts: 2" style="rounded=1;whiteSpace=wrap;html=1;" vertex="1" parent="1">
          <mxGeometry x="757" y="592.5" width="70" height="30" as="geometry" />
        </mxCell>
        <mxCell id="b8W9uFtrO54gC6MfcHu9-14" value="1" style="whiteSpace=wrap;html=1;aspect=fixed;" vertex="1" parent="1">
          <mxGeometry x="500" y="750" width="30" height="30" as="geometry" />
        </mxCell>
        <mxCell id="b8W9uFtrO54gC6MfcHu9-15" value="2" style="whiteSpace=wrap;html=1;aspect=fixed;" vertex="1" parent="1">
          <mxGeometry x="530" y="750" width="30" height="30" as="geometry" />
        </mxCell>
        <mxCell id="b8W9uFtrO54gC6MfcHu9-16" value="3" style="whiteSpace=wrap;html=1;aspect=fixed;" vertex="1" parent="1">
          <mxGeometry x="560" y="750" width="30" height="30" as="geometry" />
        </mxCell>
        <mxCell id="b8W9uFtrO54gC6MfcHu9-17" value="4" style="whiteSpace=wrap;html=1;aspect=fixed;" vertex="1" parent="1">
          <mxGeometry x="590" y="750" width="30" height="30" as="geometry" />
        </mxCell>
        <mxCell id="b8W9uFtrO54gC6MfcHu9-18" value="5" style="whiteSpace=wrap;html=1;aspect=fixed;" vertex="1" parent="1">
          <mxGeometry x="620" y="750" width="30" height="30" as="geometry" />
        </mxCell>
        <mxCell id="b8W9uFtrO54gC6MfcHu9-19" value="Pieces: 5" style="ellipse;whiteSpace=wrap;html=1;aspect=fixed;" vertex="1" parent="1">
          <mxGeometry x="400" y="732.5" width="65" height="65" as="geometry" />
        </mxCell>
        <mxCell id="b8W9uFtrO54gC6MfcHu9-20" value="5/2 = 2" style="rounded=1;whiteSpace=wrap;html=1;" vertex="1" parent="1">
          <mxGeometry x="450" y="690" width="95" height="30" as="geometry" />
        </mxCell>
        <mxCell id="b8W9uFtrO54gC6MfcHu9-21" value="" style="endArrow=none;html=1;rounded=0;" edge="1" parent="1">
          <mxGeometry width="50" height="50" relative="1" as="geometry">
            <mxPoint x="590" y="810" as="sourcePoint" />
            <mxPoint x="590" y="690" as="targetPoint" />
          </mxGeometry>
        </mxCell>
        <mxCell id="b8W9uFtrO54gC6MfcHu9-22" value="1" style="whiteSpace=wrap;html=1;aspect=fixed;" vertex="1" parent="1">
          <mxGeometry x="690" y="750" width="30" height="30" as="geometry" />
        </mxCell>
        <mxCell id="b8W9uFtrO54gC6MfcHu9-23" value="2" style="whiteSpace=wrap;html=1;aspect=fixed;" vertex="1" parent="1">
          <mxGeometry x="720" y="750" width="30" height="30" as="geometry" />
        </mxCell>
        <mxCell id="b8W9uFtrO54gC6MfcHu9-24" value="3" style="whiteSpace=wrap;html=1;aspect=fixed;" vertex="1" parent="1">
          <mxGeometry x="750" y="750" width="30" height="30" as="geometry" />
        </mxCell>
        <mxCell id="b8W9uFtrO54gC6MfcHu9-25" value="4" style="whiteSpace=wrap;html=1;aspect=fixed;" vertex="1" parent="1">
          <mxGeometry x="690" y="780" width="30" height="30" as="geometry" />
        </mxCell>
        <mxCell id="b8W9uFtrO54gC6MfcHu9-26" value="5" style="whiteSpace=wrap;html=1;aspect=fixed;" vertex="1" parent="1">
          <mxGeometry x="720" y="780" width="30" height="30" as="geometry" />
        </mxCell>
        <mxCell id="b8W9uFtrO54gC6MfcHu9-27" value="" style="endArrow=none;html=1;rounded=0;" edge="1" parent="1">
          <mxGeometry width="50" height="50" relative="1" as="geometry">
            <mxPoint x="720" y="830" as="sourcePoint" />
            <mxPoint x="720" y="720" as="targetPoint" />
          </mxGeometry>
        </mxCell>
        <mxCell id="b8W9uFtrO54gC6MfcHu9-28" value="" style="endArrow=none;html=1;rounded=0;" edge="1" parent="1">
          <mxGeometry width="50" height="50" relative="1" as="geometry">
            <mxPoint x="750" y="830" as="sourcePoint" />
            <mxPoint x="750" y="720" as="targetPoint" />
          </mxGeometry>
        </mxCell>
        <mxCell id="b8W9uFtrO54gC6MfcHu9-29" value="Cuts: 3" style="rounded=1;whiteSpace=wrap;html=1;" vertex="1" parent="1">
          <mxGeometry x="800" y="750" width="70" height="30" as="geometry" />
        </mxCell>
        <mxCell id="b8W9uFtrO54gC6MfcHu9-30" value="1" style="whiteSpace=wrap;html=1;aspect=fixed;" vertex="1" parent="1">
          <mxGeometry x="500" y="890" width="30" height="30" as="geometry" />
        </mxCell>
        <mxCell id="b8W9uFtrO54gC6MfcHu9-31" value="2" style="whiteSpace=wrap;html=1;aspect=fixed;" vertex="1" parent="1">
          <mxGeometry x="530" y="890" width="30" height="30" as="geometry" />
        </mxCell>
        <mxCell id="b8W9uFtrO54gC6MfcHu9-32" value="3" style="whiteSpace=wrap;html=1;aspect=fixed;" vertex="1" parent="1">
          <mxGeometry x="560" y="890" width="30" height="30" as="geometry" />
        </mxCell>
        <mxCell id="b8W9uFtrO54gC6MfcHu9-33" value="4" style="whiteSpace=wrap;html=1;aspect=fixed;" vertex="1" parent="1">
          <mxGeometry x="590" y="890" width="30" height="30" as="geometry" />
        </mxCell>
        <mxCell id="b8W9uFtrO54gC6MfcHu9-34" value="5" style="whiteSpace=wrap;html=1;aspect=fixed;" vertex="1" parent="1">
          <mxGeometry x="620" y="890" width="30" height="30" as="geometry" />
        </mxCell>
        <mxCell id="b8W9uFtrO54gC6MfcHu9-35" value="6" style="whiteSpace=wrap;html=1;aspect=fixed;" vertex="1" parent="1">
          <mxGeometry x="650" y="890" width="30" height="30" as="geometry" />
        </mxCell>
        <mxCell id="b8W9uFtrO54gC6MfcHu9-36" value="7" style="whiteSpace=wrap;html=1;aspect=fixed;" vertex="1" parent="1">
          <mxGeometry x="680" y="890" width="30" height="30" as="geometry" />
        </mxCell>
        <mxCell id="b8W9uFtrO54gC6MfcHu9-37" value="8" style="whiteSpace=wrap;html=1;aspect=fixed;" vertex="1" parent="1">
          <mxGeometry x="710" y="890" width="30" height="30" as="geometry" />
        </mxCell>
        <mxCell id="b8W9uFtrO54gC6MfcHu9-38" value="9" style="whiteSpace=wrap;html=1;aspect=fixed;" vertex="1" parent="1">
          <mxGeometry x="740" y="890" width="30" height="30" as="geometry" />
        </mxCell>
        <mxCell id="b8W9uFtrO54gC6MfcHu9-40" value="Pieces: 9" style="ellipse;whiteSpace=wrap;html=1;aspect=fixed;" vertex="1" parent="1">
          <mxGeometry x="400" y="872.5" width="65" height="65" as="geometry" />
        </mxCell>
        <mxCell id="b8W9uFtrO54gC6MfcHu9-41" value="9/2 = 4" style="rounded=1;whiteSpace=wrap;html=1;" vertex="1" parent="1">
          <mxGeometry x="467.5" y="830" width="95" height="30" as="geometry" />
        </mxCell>
        <mxCell id="b8W9uFtrO54gC6MfcHu9-42" value="" style="endArrow=none;html=1;rounded=0;" edge="1" parent="1">
          <mxGeometry width="50" height="50" relative="1" as="geometry">
            <mxPoint x="620" y="940" as="sourcePoint" />
            <mxPoint x="620" y="870" as="targetPoint" />
          </mxGeometry>
        </mxCell>
        <mxCell id="b8W9uFtrO54gC6MfcHu9-43" value="1" style="whiteSpace=wrap;html=1;aspect=fixed;" vertex="1" parent="1">
          <mxGeometry x="800" y="890" width="30" height="30" as="geometry" />
        </mxCell>
        <mxCell id="b8W9uFtrO54gC6MfcHu9-44" value="2" style="whiteSpace=wrap;html=1;aspect=fixed;" vertex="1" parent="1">
          <mxGeometry x="830" y="890" width="30" height="30" as="geometry" />
        </mxCell>
        <mxCell id="b8W9uFtrO54gC6MfcHu9-45" value="3" style="whiteSpace=wrap;html=1;aspect=fixed;" vertex="1" parent="1">
          <mxGeometry x="860" y="890" width="30" height="30" as="geometry" />
        </mxCell>
        <mxCell id="b8W9uFtrO54gC6MfcHu9-46" value="4" style="whiteSpace=wrap;html=1;aspect=fixed;" vertex="1" parent="1">
          <mxGeometry x="890" y="890" width="30" height="30" as="geometry" />
        </mxCell>
        <mxCell id="b8W9uFtrO54gC6MfcHu9-52" value="5" style="whiteSpace=wrap;html=1;aspect=fixed;" vertex="1" parent="1">
          <mxGeometry x="800" y="920" width="30" height="30" as="geometry" />
        </mxCell>
        <mxCell id="b8W9uFtrO54gC6MfcHu9-53" value="6" style="whiteSpace=wrap;html=1;aspect=fixed;" vertex="1" parent="1">
          <mxGeometry x="830" y="920" width="30" height="30" as="geometry" />
        </mxCell>
        <mxCell id="b8W9uFtrO54gC6MfcHu9-54" value="7" style="whiteSpace=wrap;html=1;aspect=fixed;" vertex="1" parent="1">
          <mxGeometry x="860" y="920" width="30" height="30" as="geometry" />
        </mxCell>
        <mxCell id="b8W9uFtrO54gC6MfcHu9-55" value="8" style="whiteSpace=wrap;html=1;aspect=fixed;" vertex="1" parent="1">
          <mxGeometry x="890" y="920" width="30" height="30" as="geometry" />
        </mxCell>
        <mxCell id="b8W9uFtrO54gC6MfcHu9-56" value="9" style="whiteSpace=wrap;html=1;aspect=fixed;" vertex="1" parent="1">
          <mxGeometry x="920" y="920" width="30" height="30" as="geometry" />
        </mxCell>
        <mxCell id="b8W9uFtrO54gC6MfcHu9-57" value="5/2 = 2" style="rounded=1;whiteSpace=wrap;html=1;" vertex="1" parent="1">
          <mxGeometry x="870" y="960" width="95" height="30" as="geometry" />
        </mxCell>
        <mxCell id="b8W9uFtrO54gC6MfcHu9-58" value="" style="endArrow=none;html=1;rounded=0;" edge="1" parent="1">
          <mxGeometry width="50" height="50" relative="1" as="geometry">
            <mxPoint x="860" y="980" as="sourcePoint" />
            <mxPoint x="860" y="850" as="targetPoint" />
          </mxGeometry>
        </mxCell>
        <mxCell id="b8W9uFtrO54gC6MfcHu9-59" value="1" style="whiteSpace=wrap;html=1;aspect=fixed;" vertex="1" parent="1">
          <mxGeometry x="1010" y="890" width="30" height="30" as="geometry" />
        </mxCell>
        <mxCell id="b8W9uFtrO54gC6MfcHu9-60" value="2" style="whiteSpace=wrap;html=1;aspect=fixed;" vertex="1" parent="1">
          <mxGeometry x="1040" y="890" width="30" height="30" as="geometry" />
        </mxCell>
        <mxCell id="b8W9uFtrO54gC6MfcHu9-61" value="3" style="whiteSpace=wrap;html=1;aspect=fixed;" vertex="1" parent="1">
          <mxGeometry x="1010" y="950" width="30" height="30" as="geometry" />
        </mxCell>
        <mxCell id="b8W9uFtrO54gC6MfcHu9-62" value="4" style="whiteSpace=wrap;html=1;aspect=fixed;" vertex="1" parent="1">
          <mxGeometry x="1040" y="950" width="30" height="30" as="geometry" />
        </mxCell>
        <mxCell id="b8W9uFtrO54gC6MfcHu9-63" value="5" style="whiteSpace=wrap;html=1;aspect=fixed;" vertex="1" parent="1">
          <mxGeometry x="1010" y="920" width="30" height="30" as="geometry" />
        </mxCell>
        <mxCell id="b8W9uFtrO54gC6MfcHu9-64" value="6" style="whiteSpace=wrap;html=1;aspect=fixed;" vertex="1" parent="1">
          <mxGeometry x="1040" y="920" width="30" height="30" as="geometry" />
        </mxCell>
        <mxCell id="b8W9uFtrO54gC6MfcHu9-65" value="7" style="whiteSpace=wrap;html=1;aspect=fixed;" vertex="1" parent="1">
          <mxGeometry x="1010" y="980" width="30" height="30" as="geometry" />
        </mxCell>
        <mxCell id="b8W9uFtrO54gC6MfcHu9-66" value="8" style="whiteSpace=wrap;html=1;aspect=fixed;" vertex="1" parent="1">
          <mxGeometry x="1040" y="980" width="30" height="30" as="geometry" />
        </mxCell>
        <mxCell id="b8W9uFtrO54gC6MfcHu9-67" value="9" style="whiteSpace=wrap;html=1;aspect=fixed;" vertex="1" parent="1">
          <mxGeometry x="1070" y="980" width="30" height="30" as="geometry" />
        </mxCell>
        <mxCell id="b8W9uFtrO54gC6MfcHu9-68" value="" style="endArrow=none;html=1;rounded=0;" edge="1" parent="1">
          <mxGeometry width="50" height="50" relative="1" as="geometry">
            <mxPoint x="1040" y="1030" as="sourcePoint" />
            <mxPoint x="1040" y="850" as="targetPoint" />
          </mxGeometry>
        </mxCell>
        <mxCell id="b8W9uFtrO54gC6MfcHu9-69" value="1" style="whiteSpace=wrap;html=1;aspect=fixed;" vertex="1" parent="1">
          <mxGeometry x="1180" y="860" width="30" height="30" as="geometry" />
        </mxCell>
        <mxCell id="b8W9uFtrO54gC6MfcHu9-70" value="3" style="whiteSpace=wrap;html=1;aspect=fixed;" vertex="1" parent="1">
          <mxGeometry x="1180" y="920" width="30" height="30" as="geometry" />
        </mxCell>
        <mxCell id="b8W9uFtrO54gC6MfcHu9-71" value="5" style="whiteSpace=wrap;html=1;aspect=fixed;" vertex="1" parent="1">
          <mxGeometry x="1180" y="890" width="30" height="30" as="geometry" />
        </mxCell>
        <mxCell id="b8W9uFtrO54gC6MfcHu9-72" value="7" style="whiteSpace=wrap;html=1;aspect=fixed;" vertex="1" parent="1">
          <mxGeometry x="1180" y="950" width="30" height="30" as="geometry" />
        </mxCell>
        <mxCell id="b8W9uFtrO54gC6MfcHu9-73" value="2" style="whiteSpace=wrap;html=1;aspect=fixed;" vertex="1" parent="1">
          <mxGeometry x="1180" y="980" width="30" height="30" as="geometry" />
        </mxCell>
        <mxCell id="b8W9uFtrO54gC6MfcHu9-74" value="4" style="whiteSpace=wrap;html=1;aspect=fixed;" vertex="1" parent="1">
          <mxGeometry x="1180" y="1040" width="30" height="30" as="geometry" />
        </mxCell>
        <mxCell id="b8W9uFtrO54gC6MfcHu9-75" value="6" style="whiteSpace=wrap;html=1;aspect=fixed;" vertex="1" parent="1">
          <mxGeometry x="1180" y="1010" width="30" height="30" as="geometry" />
        </mxCell>
        <mxCell id="b8W9uFtrO54gC6MfcHu9-76" value="8" style="whiteSpace=wrap;html=1;aspect=fixed;" vertex="1" parent="1">
          <mxGeometry x="1180" y="1070" width="30" height="30" as="geometry" />
        </mxCell>
        <mxCell id="b8W9uFtrO54gC6MfcHu9-77" value="9" style="whiteSpace=wrap;html=1;aspect=fixed;" vertex="1" parent="1">
          <mxGeometry x="1210" y="1070" width="30" height="30" as="geometry" />
        </mxCell>
        <mxCell id="b8W9uFtrO54gC6MfcHu9-78" value="" style="endArrow=none;html=1;rounded=0;" edge="1" parent="1">
          <mxGeometry width="50" height="50" relative="1" as="geometry">
            <mxPoint x="1210" y="1130" as="sourcePoint" />
            <mxPoint x="1210" y="820" as="targetPoint" />
          </mxGeometry>
        </mxCell>
        <mxCell id="b8W9uFtrO54gC6MfcHu9-79" value="Cuts: 4" style="rounded=1;whiteSpace=wrap;html=1;" vertex="1" parent="1">
          <mxGeometry x="1270" y="890" width="95" height="30" as="geometry" />
        </mxCell>
        <mxCell id="b8W9uFtrO54gC6MfcHu9-80" value="9/2 = 4,5" style="rounded=0;whiteSpace=wrap;html=1;" vertex="1" parent="1">
          <mxGeometry x="370" y="980" width="80" height="30" as="geometry" />
        </mxCell>
        <mxCell id="b8W9uFtrO54gC6MfcHu9-81" value="4 + (4 + 1 = 5) = 9" style="rounded=0;whiteSpace=wrap;html=1;" vertex="1" parent="1">
          <mxGeometry x="480" y="980" width="120" height="30" as="geometry" />
        </mxCell>
        <mxCell id="b8W9uFtrO54gC6MfcHu9-82" value="-&amp;gt;" style="whiteSpace=wrap;html=1;aspect=fixed;" vertex="1" parent="1">
          <mxGeometry x="450" y="980" width="30" height="30" as="geometry" />
        </mxCell>
        <mxCell id="b8W9uFtrO54gC6MfcHu9-83" value="1 cut" style="ellipse;whiteSpace=wrap;html=1;aspect=fixed;" vertex="1" parent="1">
          <mxGeometry x="445" y="1020" width="40" height="40" as="geometry" />
        </mxCell>
        <mxCell id="b8W9uFtrO54gC6MfcHu9-84" value="5/2 = 2,5" style="rounded=0;whiteSpace=wrap;html=1;" vertex="1" parent="1">
          <mxGeometry x="365" y="1070" width="80" height="30" as="geometry" />
        </mxCell>
        <mxCell id="b8W9uFtrO54gC6MfcHu9-85" value="-&amp;gt;" style="whiteSpace=wrap;html=1;aspect=fixed;" vertex="1" parent="1">
          <mxGeometry x="445" y="1070" width="30" height="30" as="geometry" />
        </mxCell>
        <mxCell id="b8W9uFtrO54gC6MfcHu9-86" value="2 + (2 + 1 = 3) = 5" style="rounded=0;whiteSpace=wrap;html=1;" vertex="1" parent="1">
          <mxGeometry x="475" y="1070" width="125" height="30" as="geometry" />
        </mxCell>
        <mxCell id="b8W9uFtrO54gC6MfcHu9-87" value="1 cut" style="ellipse;whiteSpace=wrap;html=1;aspect=fixed;" vertex="1" parent="1">
          <mxGeometry x="445" y="1110" width="40" height="40" as="geometry" />
        </mxCell>
        <mxCell id="b8W9uFtrO54gC6MfcHu9-88" value="3/2 = 1.5" style="rounded=0;whiteSpace=wrap;html=1;" vertex="1" parent="1">
          <mxGeometry x="365" y="1160" width="80" height="30" as="geometry" />
        </mxCell>
        <mxCell id="b8W9uFtrO54gC6MfcHu9-90" value="-&amp;gt;" style="whiteSpace=wrap;html=1;aspect=fixed;" vertex="1" parent="1">
          <mxGeometry x="445" y="1160" width="30" height="30" as="geometry" />
        </mxCell>
        <mxCell id="b8W9uFtrO54gC6MfcHu9-91" value="1 + (1 + 1 = 2) = 3" style="rounded=0;whiteSpace=wrap;html=1;" vertex="1" parent="1">
          <mxGeometry x="475" y="1160" width="125" height="30" as="geometry" />
        </mxCell>
        <mxCell id="b8W9uFtrO54gC6MfcHu9-92" value="1 cut" style="ellipse;whiteSpace=wrap;html=1;aspect=fixed;" vertex="1" parent="1">
          <mxGeometry x="445" y="1200" width="40" height="40" as="geometry" />
        </mxCell>
        <mxCell id="b8W9uFtrO54gC6MfcHu9-93" value="2/2 = 1" style="rounded=0;whiteSpace=wrap;html=1;" vertex="1" parent="1">
          <mxGeometry x="360" y="1260" width="80" height="30" as="geometry" />
        </mxCell>
        <mxCell id="b8W9uFtrO54gC6MfcHu9-94" value="-&amp;gt;" style="whiteSpace=wrap;html=1;aspect=fixed;" vertex="1" parent="1">
          <mxGeometry x="440" y="1260" width="30" height="30" as="geometry" />
        </mxCell>
        <mxCell id="b8W9uFtrO54gC6MfcHu9-95" value="1 + (1) = 2" style="rounded=0;whiteSpace=wrap;html=1;" vertex="1" parent="1">
          <mxGeometry x="470" y="1260" width="125" height="30" as="geometry" />
        </mxCell>
        <mxCell id="b8W9uFtrO54gC6MfcHu9-96" value="1 cut" style="ellipse;whiteSpace=wrap;html=1;aspect=fixed;" vertex="1" parent="1">
          <mxGeometry x="445" y="1310" width="40" height="40" as="geometry" />
        </mxCell>
        <mxCell id="b8W9uFtrO54gC6MfcHu9-97" value="1/1=1" style="rounded=0;whiteSpace=wrap;html=1;" vertex="1" parent="1">
          <mxGeometry x="360" y="1370" width="80" height="30" as="geometry" />
        </mxCell>
        <mxCell id="b8W9uFtrO54gC6MfcHu9-98" value="-&amp;gt;" style="whiteSpace=wrap;html=1;aspect=fixed;" vertex="1" parent="1">
          <mxGeometry x="440" y="1370" width="30" height="30" as="geometry" />
        </mxCell>
        <mxCell id="b8W9uFtrO54gC6MfcHu9-99" value="0.5 + 0.5 = 1" style="rounded=0;whiteSpace=wrap;html=1;" vertex="1" parent="1">
          <mxGeometry x="470" y="1370" width="125" height="30" as="geometry" />
        </mxCell>
        <mxCell id="b8W9uFtrO54gC6MfcHu9-100" value="1 / 1 &amp;gt;&amp;nbsp;" style="rounded=0;whiteSpace=wrap;html=1;" vertex="1" parent="1">
          <mxGeometry x="470" y="1400" width="130" height="30" as="geometry" />
        </mxCell>
        <mxCell id="b8W9uFtrO54gC6MfcHu9-101" value="Pieces: 6" style="ellipse;whiteSpace=wrap;html=1;aspect=fixed;" vertex="1" parent="1">
          <mxGeometry x="365" y="1510" width="65" height="65" as="geometry" />
        </mxCell>
        <mxCell id="b8W9uFtrO54gC6MfcHu9-102" value="1" style="whiteSpace=wrap;html=1;aspect=fixed;" vertex="1" parent="1">
          <mxGeometry x="440" y="1527.5" width="30" height="30" as="geometry" />
        </mxCell>
        <mxCell id="b8W9uFtrO54gC6MfcHu9-103" value="2" style="whiteSpace=wrap;html=1;aspect=fixed;" vertex="1" parent="1">
          <mxGeometry x="470" y="1527.5" width="30" height="30" as="geometry" />
        </mxCell>
        <mxCell id="b8W9uFtrO54gC6MfcHu9-104" value="3" style="whiteSpace=wrap;html=1;aspect=fixed;" vertex="1" parent="1">
          <mxGeometry x="500" y="1527.5" width="30" height="30" as="geometry" />
        </mxCell>
        <mxCell id="b8W9uFtrO54gC6MfcHu9-105" value="4" style="whiteSpace=wrap;html=1;aspect=fixed;" vertex="1" parent="1">
          <mxGeometry x="530" y="1527.5" width="30" height="30" as="geometry" />
        </mxCell>
        <mxCell id="b8W9uFtrO54gC6MfcHu9-106" value="5" style="whiteSpace=wrap;html=1;aspect=fixed;" vertex="1" parent="1">
          <mxGeometry x="560" y="1527.5" width="30" height="30" as="geometry" />
        </mxCell>
        <mxCell id="b8W9uFtrO54gC6MfcHu9-107" value="6" style="whiteSpace=wrap;html=1;aspect=fixed;" vertex="1" parent="1">
          <mxGeometry x="590" y="1527.5" width="30" height="30" as="geometry" />
        </mxCell>
        <mxCell id="b8W9uFtrO54gC6MfcHu9-108" value="" style="endArrow=none;html=1;rounded=0;" edge="1" parent="1">
          <mxGeometry width="50" height="50" relative="1" as="geometry">
            <mxPoint x="530" y="1590" as="sourcePoint" />
            <mxPoint x="530" y="1470" as="targetPoint" />
          </mxGeometry>
        </mxCell>
        <mxCell id="b8W9uFtrO54gC6MfcHu9-109" value="6/2=3" style="rounded=0;whiteSpace=wrap;html=1;" vertex="1" parent="1">
          <mxGeometry x="430" y="1620" width="80" height="30" as="geometry" />
        </mxCell>
        <mxCell id="b8W9uFtrO54gC6MfcHu9-110" value="3 + 3 = 6" style="rounded=0;whiteSpace=wrap;html=1;" vertex="1" parent="1">
          <mxGeometry x="540" y="1620" width="120" height="30" as="geometry" />
        </mxCell>
        <mxCell id="b8W9uFtrO54gC6MfcHu9-111" value="-&amp;gt;" style="whiteSpace=wrap;html=1;aspect=fixed;" vertex="1" parent="1">
          <mxGeometry x="510" y="1620" width="30" height="30" as="geometry" />
        </mxCell>
        <mxCell id="b8W9uFtrO54gC6MfcHu9-112" value="1 cut" style="ellipse;whiteSpace=wrap;html=1;aspect=fixed;" vertex="1" parent="1">
          <mxGeometry x="505" y="1660" width="40" height="40" as="geometry" />
        </mxCell>
        <mxCell id="b8W9uFtrO54gC6MfcHu9-113" value="3 is max" style="rounded=0;whiteSpace=wrap;html=1;" vertex="1" parent="1">
          <mxGeometry x="660" y="1620" width="70" height="30" as="geometry" />
        </mxCell>
        <mxCell id="b8W9uFtrO54gC6MfcHu9-114" value="3/2 = 1.5" style="rounded=0;whiteSpace=wrap;html=1;" vertex="1" parent="1">
          <mxGeometry x="430" y="1720" width="80" height="30" as="geometry" />
        </mxCell>
        <mxCell id="b8W9uFtrO54gC6MfcHu9-115" value="1 + (1+1) = 3" style="rounded=0;whiteSpace=wrap;html=1;" vertex="1" parent="1">
          <mxGeometry x="540" y="1720" width="120" height="30" as="geometry" />
        </mxCell>
        <mxCell id="b8W9uFtrO54gC6MfcHu9-116" value="-&amp;gt;" style="whiteSpace=wrap;html=1;aspect=fixed;" vertex="1" parent="1">
          <mxGeometry x="510" y="1720" width="30" height="30" as="geometry" />
        </mxCell>
        <mxCell id="b8W9uFtrO54gC6MfcHu9-117" value="2 is max" style="rounded=0;whiteSpace=wrap;html=1;" vertex="1" parent="1">
          <mxGeometry x="660" y="1720" width="70" height="30" as="geometry" />
        </mxCell>
        <mxCell id="b8W9uFtrO54gC6MfcHu9-118" value="1" style="whiteSpace=wrap;html=1;aspect=fixed;" vertex="1" parent="1">
          <mxGeometry x="660" y="1527.5" width="30" height="30" as="geometry" />
        </mxCell>
        <mxCell id="b8W9uFtrO54gC6MfcHu9-119" value="2" style="whiteSpace=wrap;html=1;aspect=fixed;" vertex="1" parent="1">
          <mxGeometry x="690" y="1527.5" width="30" height="30" as="geometry" />
        </mxCell>
        <mxCell id="b8W9uFtrO54gC6MfcHu9-120" value="3" style="whiteSpace=wrap;html=1;aspect=fixed;" vertex="1" parent="1">
          <mxGeometry x="720" y="1527.5" width="30" height="30" as="geometry" />
        </mxCell>
        <mxCell id="b8W9uFtrO54gC6MfcHu9-124" value="4" style="whiteSpace=wrap;html=1;aspect=fixed;" vertex="1" parent="1">
          <mxGeometry x="660" y="1557.5" width="30" height="30" as="geometry" />
        </mxCell>
        <mxCell id="b8W9uFtrO54gC6MfcHu9-125" value="5" style="whiteSpace=wrap;html=1;aspect=fixed;" vertex="1" parent="1">
          <mxGeometry x="690" y="1557.5" width="30" height="30" as="geometry" />
        </mxCell>
        <mxCell id="b8W9uFtrO54gC6MfcHu9-126" value="6" style="whiteSpace=wrap;html=1;aspect=fixed;" vertex="1" parent="1">
          <mxGeometry x="720" y="1557.5" width="30" height="30" as="geometry" />
        </mxCell>
        <mxCell id="b8W9uFtrO54gC6MfcHu9-127" value="" style="endArrow=none;html=1;rounded=0;" edge="1" parent="1">
          <mxGeometry width="50" height="50" relative="1" as="geometry">
            <mxPoint x="690" y="1600" as="sourcePoint" />
            <mxPoint x="690" y="1490" as="targetPoint" />
          </mxGeometry>
        </mxCell>
        <mxCell id="b8W9uFtrO54gC6MfcHu9-128" value="1" style="whiteSpace=wrap;html=1;aspect=fixed;" vertex="1" parent="1">
          <mxGeometry x="800" y="1527.5" width="30" height="30" as="geometry" />
        </mxCell>
        <mxCell id="b8W9uFtrO54gC6MfcHu9-129" value="2" style="whiteSpace=wrap;html=1;aspect=fixed;" vertex="1" parent="1">
          <mxGeometry x="800" y="1587.5" width="30" height="30" as="geometry" />
        </mxCell>
        <mxCell id="b8W9uFtrO54gC6MfcHu9-130" value="3" style="whiteSpace=wrap;html=1;aspect=fixed;" vertex="1" parent="1">
          <mxGeometry x="830" y="1587.5" width="30" height="30" as="geometry" />
        </mxCell>
        <mxCell id="b8W9uFtrO54gC6MfcHu9-131" value="4" style="whiteSpace=wrap;html=1;aspect=fixed;" vertex="1" parent="1">
          <mxGeometry x="800" y="1557.5" width="30" height="30" as="geometry" />
        </mxCell>
        <mxCell id="b8W9uFtrO54gC6MfcHu9-132" value="5" style="whiteSpace=wrap;html=1;aspect=fixed;" vertex="1" parent="1">
          <mxGeometry x="800" y="1617.5" width="30" height="30" as="geometry" />
        </mxCell>
        <mxCell id="b8W9uFtrO54gC6MfcHu9-133" value="6" style="whiteSpace=wrap;html=1;aspect=fixed;" vertex="1" parent="1">
          <mxGeometry x="830" y="1617.5" width="30" height="30" as="geometry" />
        </mxCell>
        <mxCell id="b8W9uFtrO54gC6MfcHu9-134" value="2/2 = 1" style="rounded=0;whiteSpace=wrap;html=1;" vertex="1" parent="1">
          <mxGeometry x="430" y="1790" width="80" height="30" as="geometry" />
        </mxCell>
        <mxCell id="b8W9uFtrO54gC6MfcHu9-135" value="-&amp;gt;" style="whiteSpace=wrap;html=1;aspect=fixed;" vertex="1" parent="1">
          <mxGeometry x="505" y="1790" width="30" height="30" as="geometry" />
        </mxCell>
        <mxCell id="b8W9uFtrO54gC6MfcHu9-136" value="1 + (1) = 2" style="rounded=0;whiteSpace=wrap;html=1;" vertex="1" parent="1">
          <mxGeometry x="535" y="1790" width="120" height="30" as="geometry" />
        </mxCell>
        <mxCell id="b8W9uFtrO54gC6MfcHu9-137" value="1 is max" style="rounded=0;whiteSpace=wrap;html=1;" vertex="1" parent="1">
          <mxGeometry x="655" y="1790" width="70" height="30" as="geometry" />
        </mxCell>
        <mxCell id="b8W9uFtrO54gC6MfcHu9-138" value="1 is max -&amp;gt; exit from recursion ( + 1 cut)" style="rounded=0;whiteSpace=wrap;html=1;" vertex="1" parent="1">
          <mxGeometry x="725" y="1790" width="225" height="30" as="geometry" />
        </mxCell>
        <mxCell id="b8W9uFtrO54gC6MfcHu9-139" value="1 cut" style="ellipse;whiteSpace=wrap;html=1;aspect=fixed;" vertex="1" parent="1">
          <mxGeometry x="505" y="1750" width="40" height="40" as="geometry" />
        </mxCell>
        <mxCell id="b8W9uFtrO54gC6MfcHu9-140" value="1 cut" style="ellipse;whiteSpace=wrap;html=1;aspect=fixed;" vertex="1" parent="1">
          <mxGeometry x="505" y="1820" width="40" height="40" as="geometry" />
        </mxCell>
        <mxCell id="b8W9uFtrO54gC6MfcHu9-141" value="Pieces: 21" style="ellipse;whiteSpace=wrap;html=1;aspect=fixed;" vertex="1" parent="1">
          <mxGeometry x="945" y="1225" width="65" height="65" as="geometry" />
        </mxCell>
        <mxCell id="b8W9uFtrO54gC6MfcHu9-142" value="1" style="whiteSpace=wrap;html=1;aspect=fixed;" vertex="1" parent="1">
          <mxGeometry x="1030" y="1240" width="30" height="30" as="geometry" />
        </mxCell>
        <mxCell id="b8W9uFtrO54gC6MfcHu9-143" value="2" style="whiteSpace=wrap;html=1;aspect=fixed;" vertex="1" parent="1">
          <mxGeometry x="1060" y="1240" width="30" height="30" as="geometry" />
        </mxCell>
        <mxCell id="b8W9uFtrO54gC6MfcHu9-144" value="3" style="whiteSpace=wrap;html=1;aspect=fixed;" vertex="1" parent="1">
          <mxGeometry x="1090" y="1240" width="30" height="30" as="geometry" />
        </mxCell>
        <mxCell id="b8W9uFtrO54gC6MfcHu9-145" value="4" style="whiteSpace=wrap;html=1;aspect=fixed;" vertex="1" parent="1">
          <mxGeometry x="1120" y="1240" width="30" height="30" as="geometry" />
        </mxCell>
        <mxCell id="b8W9uFtrO54gC6MfcHu9-146" value="5" style="whiteSpace=wrap;html=1;aspect=fixed;" vertex="1" parent="1">
          <mxGeometry x="1150" y="1240" width="30" height="30" as="geometry" />
        </mxCell>
        <mxCell id="b8W9uFtrO54gC6MfcHu9-147" value="6" style="whiteSpace=wrap;html=1;aspect=fixed;" vertex="1" parent="1">
          <mxGeometry x="1180" y="1240" width="30" height="30" as="geometry" />
        </mxCell>
        <mxCell id="b8W9uFtrO54gC6MfcHu9-148" value="7" style="whiteSpace=wrap;html=1;aspect=fixed;" vertex="1" parent="1">
          <mxGeometry x="1210" y="1240" width="30" height="30" as="geometry" />
        </mxCell>
        <mxCell id="b8W9uFtrO54gC6MfcHu9-149" value="8" style="whiteSpace=wrap;html=1;aspect=fixed;" vertex="1" parent="1">
          <mxGeometry x="1240" y="1240" width="30" height="30" as="geometry" />
        </mxCell>
        <mxCell id="b8W9uFtrO54gC6MfcHu9-150" value="9" style="whiteSpace=wrap;html=1;aspect=fixed;" vertex="1" parent="1">
          <mxGeometry x="1270" y="1240" width="30" height="30" as="geometry" />
        </mxCell>
        <mxCell id="b8W9uFtrO54gC6MfcHu9-151" value="10" style="whiteSpace=wrap;html=1;aspect=fixed;" vertex="1" parent="1">
          <mxGeometry x="1300" y="1240" width="30" height="30" as="geometry" />
        </mxCell>
        <mxCell id="b8W9uFtrO54gC6MfcHu9-152" value="11" style="whiteSpace=wrap;html=1;aspect=fixed;" vertex="1" parent="1">
          <mxGeometry x="1330" y="1240" width="30" height="30" as="geometry" />
        </mxCell>
        <mxCell id="b8W9uFtrO54gC6MfcHu9-153" value="12" style="whiteSpace=wrap;html=1;aspect=fixed;" vertex="1" parent="1">
          <mxGeometry x="1360" y="1240" width="30" height="30" as="geometry" />
        </mxCell>
        <mxCell id="b8W9uFtrO54gC6MfcHu9-154" value="13" style="whiteSpace=wrap;html=1;aspect=fixed;" vertex="1" parent="1">
          <mxGeometry x="1390" y="1240" width="30" height="30" as="geometry" />
        </mxCell>
        <mxCell id="b8W9uFtrO54gC6MfcHu9-155" value="14" style="whiteSpace=wrap;html=1;aspect=fixed;" vertex="1" parent="1">
          <mxGeometry x="1420" y="1240" width="30" height="30" as="geometry" />
        </mxCell>
        <mxCell id="b8W9uFtrO54gC6MfcHu9-156" value="15" style="whiteSpace=wrap;html=1;aspect=fixed;" vertex="1" parent="1">
          <mxGeometry x="1450" y="1240" width="30" height="30" as="geometry" />
        </mxCell>
        <mxCell id="b8W9uFtrO54gC6MfcHu9-157" value="16" style="whiteSpace=wrap;html=1;aspect=fixed;" vertex="1" parent="1">
          <mxGeometry x="1480" y="1240" width="30" height="30" as="geometry" />
        </mxCell>
        <mxCell id="b8W9uFtrO54gC6MfcHu9-158" value="17" style="whiteSpace=wrap;html=1;aspect=fixed;" vertex="1" parent="1">
          <mxGeometry x="1510" y="1240" width="30" height="30" as="geometry" />
        </mxCell>
        <mxCell id="b8W9uFtrO54gC6MfcHu9-159" value="18" style="whiteSpace=wrap;html=1;aspect=fixed;" vertex="1" parent="1">
          <mxGeometry x="1540" y="1240" width="30" height="30" as="geometry" />
        </mxCell>
        <mxCell id="b8W9uFtrO54gC6MfcHu9-160" value="19" style="whiteSpace=wrap;html=1;aspect=fixed;" vertex="1" parent="1">
          <mxGeometry x="1570" y="1240" width="30" height="30" as="geometry" />
        </mxCell>
        <mxCell id="b8W9uFtrO54gC6MfcHu9-161" value="20" style="whiteSpace=wrap;html=1;aspect=fixed;" vertex="1" parent="1">
          <mxGeometry x="1600" y="1240" width="30" height="30" as="geometry" />
        </mxCell>
        <mxCell id="b8W9uFtrO54gC6MfcHu9-162" value="21" style="whiteSpace=wrap;html=1;aspect=fixed;" vertex="1" parent="1">
          <mxGeometry x="1630" y="1240" width="30" height="30" as="geometry" />
        </mxCell>
        <mxCell id="b8W9uFtrO54gC6MfcHu9-163" value="" style="endArrow=none;html=1;rounded=0;" edge="1" parent="1">
          <mxGeometry width="50" height="50" relative="1" as="geometry">
            <mxPoint x="1330" y="1290" as="sourcePoint" />
            <mxPoint x="1330" y="1200" as="targetPoint" />
          </mxGeometry>
        </mxCell>
        <mxCell id="b8W9uFtrO54gC6MfcHu9-164" value="1" style="whiteSpace=wrap;html=1;aspect=fixed;" vertex="1" parent="1">
          <mxGeometry x="1040" y="1315" width="30" height="30" as="geometry" />
        </mxCell>
        <mxCell id="b8W9uFtrO54gC6MfcHu9-165" value="2" style="whiteSpace=wrap;html=1;aspect=fixed;" vertex="1" parent="1">
          <mxGeometry x="1070" y="1315" width="30" height="30" as="geometry" />
        </mxCell>
        <mxCell id="b8W9uFtrO54gC6MfcHu9-166" value="3" style="whiteSpace=wrap;html=1;aspect=fixed;" vertex="1" parent="1">
          <mxGeometry x="1100" y="1315" width="30" height="30" as="geometry" />
        </mxCell>
        <mxCell id="b8W9uFtrO54gC6MfcHu9-167" value="4" style="whiteSpace=wrap;html=1;aspect=fixed;" vertex="1" parent="1">
          <mxGeometry x="1130" y="1315" width="30" height="30" as="geometry" />
        </mxCell>
        <mxCell id="b8W9uFtrO54gC6MfcHu9-168" value="5" style="whiteSpace=wrap;html=1;aspect=fixed;" vertex="1" parent="1">
          <mxGeometry x="1160" y="1315" width="30" height="30" as="geometry" />
        </mxCell>
        <mxCell id="b8W9uFtrO54gC6MfcHu9-169" value="6" style="whiteSpace=wrap;html=1;aspect=fixed;" vertex="1" parent="1">
          <mxGeometry x="1190" y="1315" width="30" height="30" as="geometry" />
        </mxCell>
        <mxCell id="b8W9uFtrO54gC6MfcHu9-170" value="7" style="whiteSpace=wrap;html=1;aspect=fixed;" vertex="1" parent="1">
          <mxGeometry x="1220" y="1315" width="30" height="30" as="geometry" />
        </mxCell>
        <mxCell id="b8W9uFtrO54gC6MfcHu9-171" value="8" style="whiteSpace=wrap;html=1;aspect=fixed;" vertex="1" parent="1">
          <mxGeometry x="1250" y="1315" width="30" height="30" as="geometry" />
        </mxCell>
        <mxCell id="b8W9uFtrO54gC6MfcHu9-172" value="9" style="whiteSpace=wrap;html=1;aspect=fixed;" vertex="1" parent="1">
          <mxGeometry x="1280" y="1315" width="30" height="30" as="geometry" />
        </mxCell>
        <mxCell id="b8W9uFtrO54gC6MfcHu9-173" value="10" style="whiteSpace=wrap;html=1;aspect=fixed;" vertex="1" parent="1">
          <mxGeometry x="1310" y="1315" width="30" height="30" as="geometry" />
        </mxCell>
        <mxCell id="b8W9uFtrO54gC6MfcHu9-174" value="11" style="whiteSpace=wrap;html=1;aspect=fixed;" vertex="1" parent="1">
          <mxGeometry x="1040" y="1345" width="30" height="30" as="geometry" />
        </mxCell>
        <mxCell id="b8W9uFtrO54gC6MfcHu9-175" value="12" style="whiteSpace=wrap;html=1;aspect=fixed;" vertex="1" parent="1">
          <mxGeometry x="1070" y="1345" width="30" height="30" as="geometry" />
        </mxCell>
        <mxCell id="b8W9uFtrO54gC6MfcHu9-176" value="13" style="whiteSpace=wrap;html=1;aspect=fixed;" vertex="1" parent="1">
          <mxGeometry x="1100" y="1345" width="30" height="30" as="geometry" />
        </mxCell>
        <mxCell id="b8W9uFtrO54gC6MfcHu9-177" value="14" style="whiteSpace=wrap;html=1;aspect=fixed;" vertex="1" parent="1">
          <mxGeometry x="1130" y="1345" width="30" height="30" as="geometry" />
        </mxCell>
        <mxCell id="b8W9uFtrO54gC6MfcHu9-178" value="15" style="whiteSpace=wrap;html=1;aspect=fixed;" vertex="1" parent="1">
          <mxGeometry x="1160" y="1345" width="30" height="30" as="geometry" />
        </mxCell>
        <mxCell id="b8W9uFtrO54gC6MfcHu9-179" value="16" style="whiteSpace=wrap;html=1;aspect=fixed;" vertex="1" parent="1">
          <mxGeometry x="1190" y="1345" width="30" height="30" as="geometry" />
        </mxCell>
        <mxCell id="b8W9uFtrO54gC6MfcHu9-180" value="17" style="whiteSpace=wrap;html=1;aspect=fixed;" vertex="1" parent="1">
          <mxGeometry x="1220" y="1345" width="30" height="30" as="geometry" />
        </mxCell>
        <mxCell id="b8W9uFtrO54gC6MfcHu9-181" value="18" style="whiteSpace=wrap;html=1;aspect=fixed;" vertex="1" parent="1">
          <mxGeometry x="1250" y="1345" width="30" height="30" as="geometry" />
        </mxCell>
        <mxCell id="b8W9uFtrO54gC6MfcHu9-182" value="19" style="whiteSpace=wrap;html=1;aspect=fixed;" vertex="1" parent="1">
          <mxGeometry x="1280" y="1345" width="30" height="30" as="geometry" />
        </mxCell>
        <mxCell id="b8W9uFtrO54gC6MfcHu9-183" value="20" style="whiteSpace=wrap;html=1;aspect=fixed;" vertex="1" parent="1">
          <mxGeometry x="1310" y="1345" width="30" height="30" as="geometry" />
        </mxCell>
        <mxCell id="b8W9uFtrO54gC6MfcHu9-184" value="21" style="whiteSpace=wrap;html=1;aspect=fixed;" vertex="1" parent="1">
          <mxGeometry x="1340" y="1345" width="30" height="30" as="geometry" />
        </mxCell>
        <mxCell id="b8W9uFtrO54gC6MfcHu9-185" value="" style="endArrow=none;html=1;rounded=0;" edge="1" parent="1">
          <mxGeometry width="50" height="50" relative="1" as="geometry">
            <mxPoint x="1190" y="1390" as="sourcePoint" />
            <mxPoint x="1190" y="1300" as="targetPoint" />
          </mxGeometry>
        </mxCell>
        <mxCell id="b8W9uFtrO54gC6MfcHu9-186" value="1" style="whiteSpace=wrap;html=1;aspect=fixed;" vertex="1" parent="1">
          <mxGeometry x="1040" y="1465" width="30" height="30" as="geometry" />
        </mxCell>
        <mxCell id="b8W9uFtrO54gC6MfcHu9-187" value="2" style="whiteSpace=wrap;html=1;aspect=fixed;" vertex="1" parent="1">
          <mxGeometry x="1070" y="1465" width="30" height="30" as="geometry" />
        </mxCell>
        <mxCell id="b8W9uFtrO54gC6MfcHu9-188" value="3" style="whiteSpace=wrap;html=1;aspect=fixed;" vertex="1" parent="1">
          <mxGeometry x="1100" y="1465" width="30" height="30" as="geometry" />
        </mxCell>
        <mxCell id="b8W9uFtrO54gC6MfcHu9-189" value="4" style="whiteSpace=wrap;html=1;aspect=fixed;" vertex="1" parent="1">
          <mxGeometry x="1130" y="1465" width="30" height="30" as="geometry" />
        </mxCell>
        <mxCell id="b8W9uFtrO54gC6MfcHu9-190" value="5" style="whiteSpace=wrap;html=1;aspect=fixed;" vertex="1" parent="1">
          <mxGeometry x="1160" y="1465" width="30" height="30" as="geometry" />
        </mxCell>
        <mxCell id="b8W9uFtrO54gC6MfcHu9-196" value="11" style="whiteSpace=wrap;html=1;aspect=fixed;" vertex="1" parent="1">
          <mxGeometry x="1040" y="1495" width="30" height="30" as="geometry" />
        </mxCell>
        <mxCell id="b8W9uFtrO54gC6MfcHu9-197" value="12" style="whiteSpace=wrap;html=1;aspect=fixed;" vertex="1" parent="1">
          <mxGeometry x="1070" y="1495" width="30" height="30" as="geometry" />
        </mxCell>
        <mxCell id="b8W9uFtrO54gC6MfcHu9-198" value="13" style="whiteSpace=wrap;html=1;aspect=fixed;" vertex="1" parent="1">
          <mxGeometry x="1100" y="1495" width="30" height="30" as="geometry" />
        </mxCell>
        <mxCell id="b8W9uFtrO54gC6MfcHu9-199" value="14" style="whiteSpace=wrap;html=1;aspect=fixed;" vertex="1" parent="1">
          <mxGeometry x="1130" y="1495" width="30" height="30" as="geometry" />
        </mxCell>
        <mxCell id="b8W9uFtrO54gC6MfcHu9-200" value="15" style="whiteSpace=wrap;html=1;aspect=fixed;" vertex="1" parent="1">
          <mxGeometry x="1160" y="1495" width="30" height="30" as="geometry" />
        </mxCell>
        <mxCell id="b8W9uFtrO54gC6MfcHu9-208" value="6" style="whiteSpace=wrap;html=1;aspect=fixed;" vertex="1" parent="1">
          <mxGeometry x="1040" y="1525" width="30" height="30" as="geometry" />
        </mxCell>
        <mxCell id="b8W9uFtrO54gC6MfcHu9-209" value="7" style="whiteSpace=wrap;html=1;aspect=fixed;" vertex="1" parent="1">
          <mxGeometry x="1070" y="1525" width="30" height="30" as="geometry" />
        </mxCell>
        <mxCell id="b8W9uFtrO54gC6MfcHu9-210" value="8" style="whiteSpace=wrap;html=1;aspect=fixed;" vertex="1" parent="1">
          <mxGeometry x="1100" y="1525" width="30" height="30" as="geometry" />
        </mxCell>
        <mxCell id="b8W9uFtrO54gC6MfcHu9-211" value="9" style="whiteSpace=wrap;html=1;aspect=fixed;" vertex="1" parent="1">
          <mxGeometry x="1130" y="1525" width="30" height="30" as="geometry" />
        </mxCell>
        <mxCell id="b8W9uFtrO54gC6MfcHu9-212" value="10" style="whiteSpace=wrap;html=1;aspect=fixed;" vertex="1" parent="1">
          <mxGeometry x="1160" y="1525" width="30" height="30" as="geometry" />
        </mxCell>
        <mxCell id="b8W9uFtrO54gC6MfcHu9-213" value="16" style="whiteSpace=wrap;html=1;aspect=fixed;" vertex="1" parent="1">
          <mxGeometry x="1040" y="1555" width="30" height="30" as="geometry" />
        </mxCell>
        <mxCell id="b8W9uFtrO54gC6MfcHu9-214" value="17" style="whiteSpace=wrap;html=1;aspect=fixed;" vertex="1" parent="1">
          <mxGeometry x="1070" y="1555" width="30" height="30" as="geometry" />
        </mxCell>
        <mxCell id="b8W9uFtrO54gC6MfcHu9-215" value="18" style="whiteSpace=wrap;html=1;aspect=fixed;" vertex="1" parent="1">
          <mxGeometry x="1100" y="1555" width="30" height="30" as="geometry" />
        </mxCell>
        <mxCell id="b8W9uFtrO54gC6MfcHu9-216" value="19" style="whiteSpace=wrap;html=1;aspect=fixed;" vertex="1" parent="1">
          <mxGeometry x="1130" y="1555" width="30" height="30" as="geometry" />
        </mxCell>
        <mxCell id="b8W9uFtrO54gC6MfcHu9-217" value="20" style="whiteSpace=wrap;html=1;aspect=fixed;" vertex="1" parent="1">
          <mxGeometry x="1160" y="1555" width="30" height="30" as="geometry" />
        </mxCell>
        <mxCell id="b8W9uFtrO54gC6MfcHu9-218" value="21" style="whiteSpace=wrap;html=1;aspect=fixed;" vertex="1" parent="1">
          <mxGeometry x="1190" y="1555" width="30" height="30" as="geometry" />
        </mxCell>
        <mxCell id="b8W9uFtrO54gC6MfcHu9-219" value="" style="endArrow=none;html=1;rounded=0;" edge="1" parent="1">
          <mxGeometry width="50" height="50" relative="1" as="geometry">
            <mxPoint x="1130" y="1610" as="sourcePoint" />
            <mxPoint x="1130" y="1440" as="targetPoint" />
          </mxGeometry>
        </mxCell>
        <mxCell id="b8W9uFtrO54gC6MfcHu9-220" value="1" style="whiteSpace=wrap;html=1;aspect=fixed;" vertex="1" parent="1">
          <mxGeometry x="1045" y="1660" width="30" height="30" as="geometry" />
        </mxCell>
        <mxCell id="b8W9uFtrO54gC6MfcHu9-221" value="2" style="whiteSpace=wrap;html=1;aspect=fixed;" vertex="1" parent="1">
          <mxGeometry x="1075" y="1660" width="30" height="30" as="geometry" />
        </mxCell>
        <mxCell id="b8W9uFtrO54gC6MfcHu9-222" value="3" style="whiteSpace=wrap;html=1;aspect=fixed;" vertex="1" parent="1">
          <mxGeometry x="1105" y="1660" width="30" height="30" as="geometry" />
        </mxCell>
        <mxCell id="b8W9uFtrO54gC6MfcHu9-225" value="11" style="whiteSpace=wrap;html=1;aspect=fixed;" vertex="1" parent="1">
          <mxGeometry x="1045" y="1690" width="30" height="30" as="geometry" />
        </mxCell>
        <mxCell id="b8W9uFtrO54gC6MfcHu9-226" value="12" style="whiteSpace=wrap;html=1;aspect=fixed;" vertex="1" parent="1">
          <mxGeometry x="1075" y="1690" width="30" height="30" as="geometry" />
        </mxCell>
        <mxCell id="b8W9uFtrO54gC6MfcHu9-227" value="13" style="whiteSpace=wrap;html=1;aspect=fixed;" vertex="1" parent="1">
          <mxGeometry x="1105" y="1690" width="30" height="30" as="geometry" />
        </mxCell>
        <mxCell id="b8W9uFtrO54gC6MfcHu9-230" value="6" style="whiteSpace=wrap;html=1;aspect=fixed;" vertex="1" parent="1">
          <mxGeometry x="1045" y="1720" width="30" height="30" as="geometry" />
        </mxCell>
        <mxCell id="b8W9uFtrO54gC6MfcHu9-231" value="7" style="whiteSpace=wrap;html=1;aspect=fixed;" vertex="1" parent="1">
          <mxGeometry x="1075" y="1720" width="30" height="30" as="geometry" />
        </mxCell>
        <mxCell id="b8W9uFtrO54gC6MfcHu9-232" value="8" style="whiteSpace=wrap;html=1;aspect=fixed;" vertex="1" parent="1">
          <mxGeometry x="1105" y="1720" width="30" height="30" as="geometry" />
        </mxCell>
        <mxCell id="b8W9uFtrO54gC6MfcHu9-235" value="16" style="whiteSpace=wrap;html=1;aspect=fixed;" vertex="1" parent="1">
          <mxGeometry x="1045" y="1750" width="30" height="30" as="geometry" />
        </mxCell>
        <mxCell id="b8W9uFtrO54gC6MfcHu9-236" value="17" style="whiteSpace=wrap;html=1;aspect=fixed;" vertex="1" parent="1">
          <mxGeometry x="1075" y="1750" width="30" height="30" as="geometry" />
        </mxCell>
        <mxCell id="b8W9uFtrO54gC6MfcHu9-237" value="18" style="whiteSpace=wrap;html=1;aspect=fixed;" vertex="1" parent="1">
          <mxGeometry x="1105" y="1750" width="30" height="30" as="geometry" />
        </mxCell>
        <mxCell id="b8W9uFtrO54gC6MfcHu9-241" value="4" style="whiteSpace=wrap;html=1;aspect=fixed;" vertex="1" parent="1">
          <mxGeometry x="1045" y="1780" width="30" height="30" as="geometry" />
        </mxCell>
        <mxCell id="b8W9uFtrO54gC6MfcHu9-242" value="5" style="whiteSpace=wrap;html=1;aspect=fixed;" vertex="1" parent="1">
          <mxGeometry x="1075" y="1780" width="30" height="30" as="geometry" />
        </mxCell>
        <mxCell id="b8W9uFtrO54gC6MfcHu9-243" value="14" style="whiteSpace=wrap;html=1;aspect=fixed;" vertex="1" parent="1">
          <mxGeometry x="1045" y="1810" width="30" height="30" as="geometry" />
        </mxCell>
        <mxCell id="b8W9uFtrO54gC6MfcHu9-244" value="15" style="whiteSpace=wrap;html=1;aspect=fixed;" vertex="1" parent="1">
          <mxGeometry x="1075" y="1810" width="30" height="30" as="geometry" />
        </mxCell>
        <mxCell id="b8W9uFtrO54gC6MfcHu9-245" value="9" style="whiteSpace=wrap;html=1;aspect=fixed;" vertex="1" parent="1">
          <mxGeometry x="1045" y="1840" width="30" height="30" as="geometry" />
        </mxCell>
        <mxCell id="b8W9uFtrO54gC6MfcHu9-246" value="10" style="whiteSpace=wrap;html=1;aspect=fixed;" vertex="1" parent="1">
          <mxGeometry x="1075" y="1840" width="30" height="30" as="geometry" />
        </mxCell>
        <mxCell id="b8W9uFtrO54gC6MfcHu9-247" value="19" style="whiteSpace=wrap;html=1;aspect=fixed;" vertex="1" parent="1">
          <mxGeometry x="1045" y="1870" width="30" height="30" as="geometry" />
        </mxCell>
        <mxCell id="b8W9uFtrO54gC6MfcHu9-248" value="20" style="whiteSpace=wrap;html=1;aspect=fixed;" vertex="1" parent="1">
          <mxGeometry x="1075" y="1870" width="30" height="30" as="geometry" />
        </mxCell>
        <mxCell id="b8W9uFtrO54gC6MfcHu9-249" value="21" style="whiteSpace=wrap;html=1;aspect=fixed;" vertex="1" parent="1">
          <mxGeometry x="1105" y="1870" width="30" height="30" as="geometry" />
        </mxCell>
        <mxCell id="b8W9uFtrO54gC6MfcHu9-250" value="" style="endArrow=none;html=1;rounded=0;" edge="1" parent="1">
          <mxGeometry width="50" height="50" relative="1" as="geometry">
            <mxPoint x="1100" y="1970" as="sourcePoint" />
            <mxPoint x="1100" y="1630" as="targetPoint" />
          </mxGeometry>
        </mxCell>
        <mxCell id="b8W9uFtrO54gC6MfcHu9-251" value="1" style="whiteSpace=wrap;html=1;aspect=fixed;" vertex="1" parent="1">
          <mxGeometry x="1045" y="2000" width="30" height="30" as="geometry" />
        </mxCell>
        <mxCell id="b8W9uFtrO54gC6MfcHu9-252" value="2" style="whiteSpace=wrap;html=1;aspect=fixed;" vertex="1" parent="1">
          <mxGeometry x="1075" y="2000" width="30" height="30" as="geometry" />
        </mxCell>
        <mxCell id="b8W9uFtrO54gC6MfcHu9-254" value="11" style="whiteSpace=wrap;html=1;aspect=fixed;" vertex="1" parent="1">
          <mxGeometry x="1045" y="2030" width="30" height="30" as="geometry" />
        </mxCell>
        <mxCell id="b8W9uFtrO54gC6MfcHu9-255" value="12" style="whiteSpace=wrap;html=1;aspect=fixed;" vertex="1" parent="1">
          <mxGeometry x="1075" y="2030" width="30" height="30" as="geometry" />
        </mxCell>
        <mxCell id="b8W9uFtrO54gC6MfcHu9-257" value="6" style="whiteSpace=wrap;html=1;aspect=fixed;" vertex="1" parent="1">
          <mxGeometry x="1045" y="2060" width="30" height="30" as="geometry" />
        </mxCell>
        <mxCell id="b8W9uFtrO54gC6MfcHu9-258" value="7" style="whiteSpace=wrap;html=1;aspect=fixed;" vertex="1" parent="1">
          <mxGeometry x="1075" y="2060" width="30" height="30" as="geometry" />
        </mxCell>
        <mxCell id="b8W9uFtrO54gC6MfcHu9-260" value="16" style="whiteSpace=wrap;html=1;aspect=fixed;" vertex="1" parent="1">
          <mxGeometry x="1045" y="2090" width="30" height="30" as="geometry" />
        </mxCell>
        <mxCell id="b8W9uFtrO54gC6MfcHu9-261" value="17" style="whiteSpace=wrap;html=1;aspect=fixed;" vertex="1" parent="1">
          <mxGeometry x="1075" y="2090" width="30" height="30" as="geometry" />
        </mxCell>
        <mxCell id="b8W9uFtrO54gC6MfcHu9-263" value="4" style="whiteSpace=wrap;html=1;aspect=fixed;" vertex="1" parent="1">
          <mxGeometry x="1045" y="2120" width="30" height="30" as="geometry" />
        </mxCell>
        <mxCell id="b8W9uFtrO54gC6MfcHu9-264" value="5" style="whiteSpace=wrap;html=1;aspect=fixed;" vertex="1" parent="1">
          <mxGeometry x="1075" y="2120" width="30" height="30" as="geometry" />
        </mxCell>
        <mxCell id="b8W9uFtrO54gC6MfcHu9-265" value="14" style="whiteSpace=wrap;html=1;aspect=fixed;" vertex="1" parent="1">
          <mxGeometry x="1045" y="2150" width="30" height="30" as="geometry" />
        </mxCell>
        <mxCell id="b8W9uFtrO54gC6MfcHu9-266" value="15" style="whiteSpace=wrap;html=1;aspect=fixed;" vertex="1" parent="1">
          <mxGeometry x="1075" y="2150" width="30" height="30" as="geometry" />
        </mxCell>
        <mxCell id="b8W9uFtrO54gC6MfcHu9-267" value="9" style="whiteSpace=wrap;html=1;aspect=fixed;" vertex="1" parent="1">
          <mxGeometry x="1045" y="2180" width="30" height="30" as="geometry" />
        </mxCell>
        <mxCell id="b8W9uFtrO54gC6MfcHu9-268" value="10" style="whiteSpace=wrap;html=1;aspect=fixed;" vertex="1" parent="1">
          <mxGeometry x="1075" y="2180" width="30" height="30" as="geometry" />
        </mxCell>
        <mxCell id="b8W9uFtrO54gC6MfcHu9-269" value="19" style="whiteSpace=wrap;html=1;aspect=fixed;" vertex="1" parent="1">
          <mxGeometry x="1045" y="2210" width="30" height="30" as="geometry" />
        </mxCell>
        <mxCell id="b8W9uFtrO54gC6MfcHu9-270" value="20" style="whiteSpace=wrap;html=1;aspect=fixed;" vertex="1" parent="1">
          <mxGeometry x="1075" y="2210" width="30" height="30" as="geometry" />
        </mxCell>
        <mxCell id="b8W9uFtrO54gC6MfcHu9-277" value="3" style="whiteSpace=wrap;html=1;aspect=fixed;" vertex="1" parent="1">
          <mxGeometry x="1045" y="2240" width="30" height="30" as="geometry" />
        </mxCell>
        <mxCell id="b8W9uFtrO54gC6MfcHu9-278" value="13" style="whiteSpace=wrap;html=1;aspect=fixed;" vertex="1" parent="1">
          <mxGeometry x="1045" y="2270" width="30" height="30" as="geometry" />
        </mxCell>
        <mxCell id="b8W9uFtrO54gC6MfcHu9-279" value="8" style="whiteSpace=wrap;html=1;aspect=fixed;" vertex="1" parent="1">
          <mxGeometry x="1045" y="2300" width="30" height="30" as="geometry" />
        </mxCell>
        <mxCell id="b8W9uFtrO54gC6MfcHu9-280" value="18" style="whiteSpace=wrap;html=1;aspect=fixed;" vertex="1" parent="1">
          <mxGeometry x="1045" y="2330" width="30" height="30" as="geometry" />
        </mxCell>
        <mxCell id="b8W9uFtrO54gC6MfcHu9-281" value="21" style="whiteSpace=wrap;html=1;aspect=fixed;" vertex="1" parent="1">
          <mxGeometry x="1045" y="2450" width="30" height="30" as="geometry" />
        </mxCell>
        <mxCell id="b8W9uFtrO54gC6MfcHu9-282" value="" style="endArrow=none;html=1;rounded=0;" edge="1" parent="1">
          <mxGeometry width="50" height="50" relative="1" as="geometry">
            <mxPoint x="1070" y="2510" as="sourcePoint" />
            <mxPoint x="1070" y="1980" as="targetPoint" />
          </mxGeometry>
        </mxCell>
      </root>
    </mxGraphModel>
  </diagram>
</mxfile>
